# xmcd
#
# Track frame offsets:
#	150
#	13862
#	28112
#	38672
#	48622
#	59317
#	73190
#	87595
#	99685
#	108107
#	118865
#	132060
#
# Disc length: 1989 seconds
#
# Revision: 1
# Processed by: cddbd v1.5.1PL0 Copyright (c) Steve Scherf et al.
# Submitted via: CDex 1.50Beta5
#
DISCID=a707c30c
DTITLE=Various Artist - Screen Music
DYEAR=1900
DGENRE=
TTITLE0=ロイ・オービソン/オー・プリティ・ウーマン
TTITLE1=ボビー・ダーリン/マック・ザ・ナイフ
TTITLE2=ルイ・アームストロング/この素晴らしき世界
TTITLE3=コーデッツ/ロリポップ
TTITLE4=レスリー・ゴーア/涙のバースデイ・パーティー
TTITLE5=グレン・グレイ&カサ・ロマ・オーケストラ/スモーク・リングス
TTITLE6=ナット・キング・コール/恋におちた時
TTITLE7=プラターズ/煙が目にしみる
TTITLE8=ジェリー・リー・ルイス/火の玉ロック
TTITLE9=フランキー・アヴァロン/ヴィーナス
TTITLE10=シャドウズ/アパッチ
TTITLE11=ビリー・ホリデイ/バット・ノット・フォー・ミー
EXTD=
EXTT0=
EXTT1=
EXTT2=
EXTT3=
EXTT4=
EXTT5=
EXTT6=
EXTT7=
EXTT8=
EXTT9=
EXTT10=
EXTT11=
PLAYORDER=
